<svg width="13" height="12" viewBox="0 0 13 12" fill="none" xmlns="http://www.w3.org/2000/svg">
<g clip-path="url(#clip0_141_569)">
<path d="M12.6353 5.46533L7.39595 0.226301C7.0944 -0.0754336 6.60502 -0.0754336 6.3031 0.226301L5.21513 1.31427L6.59527 2.69441C6.91599 2.58603 7.28377 2.65874 7.53943 2.91439C7.79631 3.17169 7.86849 3.54261 7.75749 3.86436L9.08757 5.19449C9.40937 5.08363 9.78067 5.15535 10.0377 5.41278C10.3969 5.77185 10.3969 6.3538 10.0377 6.7131C9.67838 7.07244 9.09643 7.07244 8.73695 6.7131C8.46676 6.44263 8.40001 6.04583 8.53679 5.71297L7.29638 4.47257L7.29624 7.7368C7.38616 7.78126 7.46829 7.83999 7.53943 7.91071C7.89863 8.26977 7.89863 8.85177 7.53943 9.21135C7.18013 9.5705 6.5979 9.5705 6.23912 9.21135C5.87992 8.85177 5.87992 8.26982 6.23912 7.91075C6.3252 7.82463 6.4275 7.75642 6.5401 7.71008V4.41543C6.42734 4.36939 6.32498 4.30115 6.23912 4.21475C5.96696 3.94297 5.90153 3.54364 6.04098 3.20947L4.68048 1.84883L1.08798 5.4411C0.786104 5.74311 0.786104 6.23253 1.08798 6.53432L6.32738 11.7734C6.62902 12.0752 7.11831 12.0752 7.42032 11.7734L12.6352 6.55864C12.937 6.25677 12.937 5.76707 12.6352 5.46533" fill="#DE4C36"/>
</g>
<defs>
<clipPath id="clip0_141_569">
<rect width="12" height="12" fill="white" transform="translate(0.861572)"/>
</clipPath>
</defs>
</svg>
