<svg width="12" height="12" viewBox="0 0 12 12" fill="none" xmlns="http://www.w3.org/2000/svg">
<path d="M5.60736 0.0095739C5.58158 0.0119174 5.49956 0.0201197 5.42574 0.0259786C3.72317 0.179479 2.12841 1.09814 1.11835 2.51011C0.555903 3.29519 0.196173 4.18573 0.0602486 5.129C0.0122065 5.45826 0.00634766 5.55552 0.00634766 6.00196C0.00634766 6.4484 0.0122065 6.54565 0.0602486 6.87492C0.385998 9.12587 1.98779 11.0171 4.16024 11.7178C4.54926 11.8432 4.95938 11.9287 5.42574 11.9803C5.60736 12.0002 6.39244 12.0002 6.57407 11.9803C7.37907 11.8912 8.06103 11.692 8.73362 11.3487C8.83674 11.296 8.85666 11.2819 8.84259 11.2702C8.83322 11.2632 8.39381 10.6738 7.86652 9.96134L6.90802 8.66654L5.70696 6.88898C5.04609 5.91173 4.50239 5.11259 4.49771 5.11259C4.49302 5.11142 4.48833 5.90119 4.48599 6.86555C4.48247 8.55405 4.4813 8.62201 4.46021 8.66185C4.42974 8.71927 4.40631 8.74271 4.35709 8.76848C4.3196 8.78723 4.28679 8.79075 4.10985 8.79075H3.90714L3.85324 8.75677C3.81808 8.7345 3.79231 8.70521 3.77473 8.67123L3.75012 8.6185L3.75247 6.26912L3.75598 3.91857L3.79231 3.87287C3.81105 3.84826 3.85089 3.81662 3.87902 3.80139C3.92706 3.77796 3.94581 3.77561 4.14852 3.77561C4.38756 3.77561 4.4274 3.78499 4.4895 3.85295C4.50708 3.8717 5.15741 4.85129 5.93546 6.03125C6.71351 7.21121 7.77746 8.82239 8.30007 9.61332L9.2492 11.0511L9.29724 11.0194C9.72259 10.7429 10.1725 10.3492 10.5288 9.93907C11.2869 9.06845 11.7755 8.00684 11.9396 6.87492C11.9876 6.54565 11.9935 6.4484 11.9935 6.00196C11.9935 5.55552 11.9876 5.45826 11.9396 5.129C11.6138 2.87804 10.012 0.986822 7.83957 0.286109C7.4564 0.161903 7.04863 0.0763643 6.59164 0.0248068C6.47915 0.0130892 5.70462 0.00019982 5.60736 0.0095739ZM8.06103 3.635C8.11728 3.66312 8.16297 3.71702 8.17938 3.77327C8.18875 3.80373 8.1911 4.45523 8.18875 5.92345L8.18524 8.03027L7.81379 7.4608L7.44117 6.89132V5.35983C7.44117 4.36969 7.44586 3.81311 7.45289 3.78616C7.47163 3.72054 7.51265 3.66898 7.56889 3.63852C7.61693 3.61391 7.63451 3.61157 7.81848 3.61157C7.9919 3.61157 8.02236 3.61391 8.06103 3.635Z" fill="#263238"/>
<path d="M9.19067 11.0769C9.14965 11.1026 9.13676 11.1202 9.17309 11.1003C9.19887 11.0851 9.24105 11.0534 9.23402 11.0522C9.23051 11.0522 9.21058 11.064 9.19067 11.0769ZM9.10981 11.1296C9.08872 11.146 9.08872 11.1472 9.1145 11.1343C9.12856 11.1272 9.14028 11.119 9.14028 11.1167C9.14028 11.1073 9.13442 11.1097 9.10981 11.1296ZM9.05123 11.1647C9.03013 11.1811 9.03013 11.1823 9.05591 11.1694C9.06997 11.1624 9.08169 11.1542 9.08169 11.1518C9.08169 11.1425 9.07583 11.1448 9.05123 11.1647ZM8.99264 11.1999C8.97155 11.2163 8.97155 11.2175 8.99732 11.2046C9.01139 11.1975 9.0231 11.1893 9.0231 11.187C9.0231 11.1776 9.01725 11.18 8.99264 11.1999ZM8.90358 11.2468C8.85906 11.2702 8.8614 11.2796 8.90593 11.2573C8.92585 11.2468 8.94108 11.2362 8.94108 11.2339C8.94108 11.2257 8.93991 11.2268 8.90358 11.2468Z" fill="#263238"/>
</svg>
