<svg width="13" height="12" viewBox="0 0 13 12" fill="none" xmlns="http://www.w3.org/2000/svg">
<g clip-path="url(#clip0_141_566)">
<path d="M12.8616 0H0.861572V12H12.8616V0Z" fill="#F7DF1E"/>
<path d="M8.92257 9.37483C9.16429 9.7695 9.47876 10.0596 10.035 10.0596C10.5022 10.0596 10.8007 9.82607 10.8007 9.50341C10.8007 9.11674 10.494 8.97979 9.97972 8.75483L9.69781 8.63388C8.8841 8.28722 8.34353 7.85293 8.34353 6.93483C8.34353 6.08912 8.98791 5.44531 9.99495 5.44531C10.7119 5.44531 11.2273 5.69484 11.5988 6.34817L10.7207 6.91198C10.5273 6.56531 10.3188 6.42874 9.99495 6.42874C9.66467 6.42874 9.45534 6.63826 9.45534 6.91198C9.45534 7.25026 9.66486 7.38722 10.1487 7.59674L10.4306 7.7175C11.3887 8.12836 11.9296 8.54721 11.9296 9.48893C11.9296 10.5042 11.1321 11.0604 10.061 11.0604C9.01381 11.0604 8.33724 10.5613 8.00619 9.90721L8.92257 9.37483ZM4.93914 9.47255C5.11629 9.78683 5.27743 10.0525 5.66486 10.0525C6.03534 10.0525 6.26905 9.9076 6.26905 9.34398V5.50969H7.39667V9.35921C7.39667 10.5268 6.7121 11.0583 5.71286 11.0583C4.81 11.0583 4.28714 10.591 4.02124 10.0283L4.93914 9.47255Z" fill="#263238"/>
</g>
<defs>
<clipPath id="clip0_141_566">
<rect width="12" height="12" fill="white" transform="translate(0.861572)"/>
</clipPath>
</defs>
</svg>
