<svg width="9" height="12" viewBox="0 0 9 12" fill="none" xmlns="http://www.w3.org/2000/svg">
<g clip-path="url(#clip0_141_571)">
<path d="M2.82912 12C3.91481 12 4.79594 11.104 4.79594 10V8H2.82912C1.74344 8 0.862305 8.896 0.862305 10C0.862305 11.104 1.74344 12 2.82912 12Z" fill="#0ACF83"/>
<path d="M0.862305 6C0.862305 4.896 1.74344 4 2.82912 4H4.79594V8H2.82912C1.74344 8 0.862305 7.104 0.862305 6Z" fill="#A259FF"/>
<path d="M0.862549 2C0.862549 0.896 1.74368 0 2.82937 0H4.79619V4H2.82937C1.74368 4 0.862549 3.104 0.862549 2Z" fill="#F24E1E"/>
<path d="M4.7959 0H6.76272C7.8484 0 8.72954 0.896 8.72954 2C8.72954 3.104 7.8484 4 6.76272 4H4.7959V0Z" fill="#FF7262"/>
<path d="M8.72954 6C8.72954 7.104 7.8484 8 6.76272 8C5.67703 8 4.7959 7.104 4.7959 6C4.7959 4.896 5.67703 4 6.76272 4C7.8484 4 8.72954 4.896 8.72954 6Z" fill="#1ABCFE"/>
</g>
<defs>
<clipPath id="clip0_141_571">
<rect width="7.86885" height="12" fill="white" transform="translate(0.861572)"/>
</clipPath>
</defs>
</svg>
