<svg width="12" height="12" viewBox="0 0 12 12" fill="none" xmlns="http://www.w3.org/2000/svg">
<path fill-rule="evenodd" clip-rule="evenodd" d="M10.2288 8.87476C10.3245 10.1044 10.3245 10.6808 10.3245 11.31H7.47946C7.47946 11.1729 7.48191 11.0476 7.48439 10.9204C7.49208 10.5252 7.50011 10.1131 7.43608 9.28091C7.35146 8.06249 6.82678 7.79175 5.86205 7.79175H5.00732H1.38745V5.57493H5.99745C7.21605 5.57493 7.82537 5.20422 7.82537 4.22273C7.82537 3.3597 7.21605 2.83671 5.99745 2.83671H1.38745V0.66748H6.50521C9.264 0.66748 10.6349 1.9705 10.6349 4.05193C10.6349 5.60877 9.67022 6.62411 8.36697 6.79333C9.46711 7.01331 10.1103 7.63944 10.2288 8.87476Z" fill="#121212"/>
<path d="M1.38745 11.3098V9.65723H4.39563C4.8981 9.65723 5.00721 10.0299 5.00721 10.2521V11.3098H1.38745Z" fill="#121212"/>
</svg>
