<svg width="11" height="12" viewBox="0 0 11 12" fill="none" xmlns="http://www.w3.org/2000/svg">
<g clip-path="url(#clip0_141_555)">
<path d="M10.5455 6.00135C10.5455 5.3037 9.67061 4.64255 8.32932 4.23255C8.63885 2.86732 8.50128 1.78114 7.89512 1.43339C7.7554 1.35182 7.59204 1.31318 7.41363 1.31318V1.79187C7.51251 1.79187 7.59204 1.81119 7.65867 1.84768C7.95101 2.01512 8.07783 2.65266 7.97895 3.47266C7.95531 3.67444 7.91661 3.88695 7.86933 4.10376C7.44802 4.00072 6.98803 3.9213 6.50439 3.86978C6.21421 3.47266 5.91328 3.11203 5.6102 2.79648C6.31094 2.14606 6.96868 1.78973 7.41578 1.78973V1.31104C6.82467 1.31104 6.05085 1.73177 5.26843 2.46161C4.48601 1.73606 3.71219 1.31962 3.12108 1.31962V1.79831C3.56602 1.79831 4.22592 2.1525 4.92666 2.79863C4.62573 3.11418 4.3248 3.47266 4.03891 3.86978C3.55313 3.9213 3.09313 4.00072 2.67183 4.1059C2.62239 3.89124 2.58585 3.68302 2.56006 3.48339C2.45903 2.66339 2.5837 2.02585 2.87388 1.85627C2.93837 1.81763 3.0222 1.80046 3.12108 1.80046V1.32177C2.94052 1.32177 2.77716 1.36041 2.63529 1.44198C2.03128 1.78973 1.89586 2.87376 2.20754 4.2347C0.870548 4.64685 0 5.30585 0 6.00135C0 6.69899 0.874847 7.36014 2.21614 7.77014C1.90661 9.13538 2.04418 10.2216 2.65034 10.5693C2.79005 10.6509 2.95342 10.6895 3.13397 10.6895C3.72509 10.6895 4.49891 10.2688 5.28133 9.53894C6.06374 10.2645 6.83756 10.6809 7.42868 10.6809C7.60924 10.6809 7.7726 10.6423 7.91447 10.5607C8.51848 10.213 8.65389 9.12894 8.34222 7.768C9.67491 7.358 10.5455 6.69684 10.5455 6.00135ZM7.7468 4.56957C7.66727 4.84648 7.56839 5.13198 7.45662 5.41747C7.36849 5.24575 7.27606 5.07402 7.17504 4.90229C7.07616 4.73056 6.97083 4.56313 6.86551 4.39999C7.17074 4.44507 7.46522 4.50088 7.7468 4.56957ZM6.76233 6.85569C6.59467 7.14548 6.42271 7.42025 6.2443 7.67569C5.92403 7.7036 5.59945 7.71862 5.27273 7.71862C4.94815 7.71862 4.62358 7.7036 4.30545 7.67784C4.12704 7.42239 3.95293 7.14978 3.78527 6.86213C3.62191 6.58093 3.47359 6.29543 3.33818 6.00779C3.47145 5.72014 3.62191 5.4325 3.78312 5.1513C3.95078 4.8615 4.12274 4.58674 4.30115 4.3313C4.62143 4.30339 4.946 4.28836 5.27273 4.28836C5.5973 4.28836 5.92188 4.30339 6.24 4.32915C6.41841 4.58459 6.59252 4.85721 6.76018 5.14486C6.92354 5.42606 7.07186 5.71156 7.20728 5.9992C7.07186 6.28684 6.92354 6.57449 6.76233 6.85569ZM7.45662 6.57663C7.57269 6.86428 7.67157 7.15192 7.75325 7.43098C7.47167 7.49967 7.17504 7.55763 6.86766 7.60271C6.97298 7.43742 7.07831 7.26784 7.17719 7.09396C7.27606 6.92224 7.36849 6.74836 7.45662 6.57663ZM5.27703 8.86705C5.07712 8.66098 4.87722 8.43129 4.67946 8.18014C4.87292 8.18873 5.07067 8.19517 5.27058 8.19517C5.47263 8.19517 5.67253 8.19088 5.86814 8.18014C5.67468 8.43129 5.47478 8.66098 5.27703 8.86705ZM3.6778 7.60271C3.37257 7.55763 3.07809 7.50182 2.7965 7.43313C2.87603 7.15622 2.97491 6.87072 3.08668 6.58522C3.17481 6.75695 3.26724 6.92868 3.36827 7.1004C3.4693 7.27213 3.57247 7.43957 3.6778 7.60271ZM5.26628 3.13564C5.46618 3.34171 5.66609 3.5714 5.86384 3.82255C5.67038 3.81397 5.47263 3.80753 5.27273 3.80753C5.07067 3.80753 4.87077 3.81182 4.67517 3.82255C4.86862 3.5714 5.06853 3.34171 5.26628 3.13564ZM3.67565 4.39999C3.57032 4.56527 3.465 4.73486 3.36612 4.90873C3.26724 5.08046 3.17481 5.25219 3.08668 5.42391C2.97061 5.13627 2.87173 4.84863 2.79005 4.56957C3.07164 4.50302 3.36827 4.44507 3.67565 4.39999ZM1.73035 7.08752C0.969426 6.76339 0.477189 6.33836 0.477189 6.00135C0.477189 5.66433 0.969426 5.23716 1.73035 4.91517C1.91521 4.83575 2.11726 4.76491 2.32576 4.69836C2.44828 5.1191 2.60949 5.557 2.8094 6.00564C2.61164 6.45213 2.45258 6.88789 2.33221 7.30648C2.11941 7.23993 1.91736 7.16695 1.73035 7.08752ZM2.88678 10.155C2.59445 9.98758 2.46763 9.35004 2.56651 8.53004C2.59015 8.32826 2.62884 8.11574 2.67613 7.89894C3.09743 8.00197 3.55743 8.0814 4.04106 8.13292C4.33125 8.53004 4.63218 8.89067 4.93526 9.20621C4.23452 9.85663 3.57677 10.213 3.12967 10.213C3.03295 10.2108 2.95127 10.1915 2.88678 10.155ZM7.9854 8.5193C8.08642 9.3393 7.96175 9.97684 7.67157 10.1464C7.60709 10.1851 7.52325 10.2022 7.42438 10.2022C6.97943 10.2022 6.31954 9.84805 5.6188 9.20192C5.91973 8.88637 6.22066 8.52789 6.50654 8.13077C6.99233 8.07925 7.45232 7.99983 7.87362 7.89465C7.92306 8.11145 7.96175 8.31967 7.9854 8.5193ZM8.81296 7.08752C8.6281 7.16695 8.42605 7.23779 8.21754 7.30433C8.09502 6.8836 7.93381 6.44569 7.73391 5.99705C7.93166 5.55056 8.09072 5.1148 8.2111 4.69622C8.4239 4.76276 8.62595 4.83575 8.81511 4.91517C9.57603 5.23931 10.0683 5.66433 10.0683 6.00135C10.0661 6.33836 9.57388 6.76554 8.81296 7.08752Z" fill="#61DAFB"/>
<path d="M5.27065 6.98249C5.81317 6.98249 6.25297 6.54329 6.25297 6.0015C6.25297 5.45971 5.81317 5.02051 5.27065 5.02051C4.72813 5.02051 4.28833 5.45971 4.28833 6.0015C4.28833 6.54329 4.72813 6.98249 5.27065 6.98249Z" fill="#61DAFB"/>
</g>
<defs>
<clipPath id="clip0_141_555">
<rect width="10.5455" height="12" fill="white"/>
</clipPath>
</defs>
</svg>
