<svg width="13" height="12" viewBox="0 0 13 12" fill="none" xmlns="http://www.w3.org/2000/svg">
<g clip-path="url(#clip0_141_563)">
<path d="M0.861572 6V0H12.8616V12H0.861572" fill="#007ACC"/>
<path d="M3.49268 6.02114V6.51014H5.05268V10.9502H6.15968V6.51014H7.71968V6.03014C7.71968 5.76014 7.71968 5.54114 7.70768 5.53514C7.70768 5.52614 6.75668 5.52314 5.60168 5.52314L3.50168 5.53214V6.02414L3.49268 6.02114ZM10.5037 5.52014C10.8097 5.59214 11.0437 5.73014 11.2537 5.94914C11.3647 6.06914 11.5297 6.27914 11.5417 6.33314C11.5417 6.35114 11.0227 6.70214 10.7077 6.89715C10.6957 6.90615 10.6477 6.85515 10.5997 6.77715C10.4437 6.55514 10.2847 6.45914 10.0357 6.44114C9.67568 6.41714 9.43568 6.60614 9.43568 6.92115C9.43568 7.01715 9.45368 7.07115 9.48968 7.14915C9.57068 7.31415 9.72068 7.41315 10.1857 7.61715C11.0437 7.98615 11.4157 8.22915 11.6407 8.57715C11.8957 8.96715 11.9527 9.57915 11.7817 10.0382C11.5897 10.5392 11.1217 10.8782 10.4527 10.9892C10.2427 11.0252 9.76268 11.0192 9.53768 10.9802C9.05768 10.8902 8.59868 10.6502 8.31668 10.3412C8.20568 10.2212 7.99268 9.90015 8.00468 9.87915L8.11868 9.80715L8.56868 9.54615L8.90768 9.34815L8.98568 9.45315C9.08468 9.60915 9.30668 9.81915 9.43568 9.89115C9.82568 10.0922 10.3477 10.0652 10.6057 9.83115C10.7167 9.72915 10.7647 9.62115 10.7647 9.47115C10.7647 9.33315 10.7437 9.27015 10.6747 9.16515C10.5787 9.03315 10.3867 8.92515 9.84668 8.68515C9.22568 8.42115 8.96168 8.25315 8.71568 7.99515C8.57468 7.83915 8.44568 7.59615 8.38568 7.39515C8.34068 7.22115 8.32568 6.79515 8.36768 6.62414C8.49668 6.02414 8.94968 5.60414 9.59768 5.48414C9.80768 5.44214 10.3027 5.46014 10.5097 5.51414L10.5037 5.52014Z" fill="white"/>
</g>
<defs>
<clipPath id="clip0_141_563">
<rect width="12" height="12" fill="white" transform="translate(0.861572)"/>
</clipPath>
</defs>
</svg>
