<svg width="32" height="32" viewBox="0 0 32 32" fill="none" xmlns="http://www.w3.org/2000/svg">
<path d="M14.1825 30.9635C12.5697 30.9635 11.1489 30.6819 9.92008 30.1187C8.69128 29.5555 7.74408 28.7747 7.07848 27.7763C6.41288 26.7523 6.08008 25.5747 6.08008 24.2435C6.08008 23.1171 6.31048 22.0931 6.77128 21.1715C7.25768 20.2499 7.89768 19.5203 8.69128 18.9827C9.51048 18.4451 10.4065 18.1763 11.3793 18.1763C12.2753 18.1763 13.0305 18.4067 13.6449 18.8675C14.2593 19.3027 14.6433 19.9171 14.7969 20.7107C13.4657 20.7107 12.4033 21.0691 11.6097 21.7859C10.8161 22.4771 10.4193 23.4243 10.4193 24.6275C10.4193 25.7283 10.7521 26.6115 11.4177 27.2771C12.0833 27.9427 12.9665 28.2755 14.0673 28.2755C15.4241 28.2755 16.5377 27.8275 17.4081 26.9315C18.3041 26.0099 18.7521 24.8579 18.7521 23.4755C18.7521 22.2723 18.4193 21.1331 17.7537 20.0579C17.0881 18.9827 16.0897 17.6771 14.7585 16.1411C13.3761 14.5539 12.3265 13.1971 11.6097 12.0707C10.9185 10.9187 10.5729 9.66427 10.5729 8.30747C10.5729 6.97627 10.9441 5.78587 11.6865 4.73627C12.4289 3.66107 13.4529 2.81627 14.7585 2.20188C16.0641 1.58747 17.5361 1.28027 19.1745 1.28027C21.2481 1.28027 22.8993 1.76667 24.1281 2.73948C25.3825 3.71227 26.0097 5.01787 26.0097 6.65627C26.0097 7.73147 25.7409 8.60187 25.2033 9.26747C24.6657 9.93307 23.9617 10.2659 23.0913 10.2659C22.1185 10.2659 21.3377 9.86907 20.7489 9.07547C21.2353 8.71707 21.6193 8.24347 21.9009 7.65467C22.1825 7.06587 22.3233 6.45147 22.3233 5.81147C22.3233 4.99227 22.0801 4.33947 21.5937 3.85307C21.1073 3.36667 20.4417 3.12347 19.5969 3.12347C18.5729 3.12347 17.7281 3.49467 17.0625 4.23707C16.4225 4.95387 16.1025 5.87547 16.1025 7.00187C16.1025 8.02587 16.3969 8.98587 16.9857 9.88187C17.5745 10.7523 18.4961 11.8787 19.7505 13.2611C20.7745 14.3619 21.5937 15.3091 22.2081 16.1027C22.8481 16.8963 23.3857 17.8179 23.8209 18.8675C24.2817 19.8915 24.5121 21.0051 24.5121 22.2083C24.5121 23.8467 24.0513 25.3315 23.1297 26.6627C22.2337 27.9939 20.9921 29.0435 19.4049 29.8115C17.8433 30.5795 16.1025 30.9635 14.1825 30.9635Z" fill="#2ECC91"/>
</svg>
