<svg width="156" height="256" fill="none" xmlns="http://www.w3.org/2000/svg"><g clip-path="url(#a)"><path d="M41.96 203h1.2c.273-1.856.609-4.896.785-7.84h-1.217c-.111 2.24-.224 4.128-.352 6.24h-.063c-.16-.512-1.28-3.696-1.409-4.096h-.8c-.111.384-1.215 3.568-1.376 4.064h-.064c-.16-2.112-.272-3.984-.383-6.208H37c.175 2.944.512 5.984.8 7.84h1.167l1.488-4.384L41.962 203Zm10.845.176.128-1.104c-3.792-.096-4.96-.8-5.088-2.656l5.36-.128c.288-2.592-.8-4.32-2.944-4.32-2.032 0-3.696 1.84-3.696 4.224 0 2.544 1.328 3.968 6.24 3.984Zm-2.768-7.136c1.312 0 1.936.944 1.952 2.448-1.104.032-3.248.096-4.144.128.096-1.68.896-2.576 2.192-2.576Zm8.653 7.152c2.176 0 4.16-1.696 4.16-4.464 0-2.288-1.232-3.744-2.912-3.744-.928 0-1.68.4-2.256.88v-4.16l-1.296.112v10.976c.72.256 1.488.4 2.304.4Zm.448-1.12c-.48 0-.96-.096-1.456-.272v-5.12c.512-.384 1.136-.624 1.744-.624 1.248 0 2.144 1.04 2.144 2.992 0 2-1.024 3.024-2.432 3.024Zm22.954.32a94.697 94.697 0 0 0-1.776-2.096c.528-.944 1.04-2.208 1.392-3.632l-1.12-.144a16.232 16.232 0 0 1-.928 3.008c-1.904-2.176-2.784-3.12-2.784-3.952 0-.864.672-1.6 3.28-1.472l-.096-1.216c-3.408-.064-4.464 1.392-4.464 2.768 0 .688.32 1.328.96 2.16-1.408.896-2.128 1.904-2.128 3.104 0 1.28.784 2.272 2.304 2.272 1.024 0 2.048-.544 2.864-1.776.448.544.944 1.136 1.456 1.792l1.04-.816Zm-5.088-.272c-.88 0-1.344-.624-1.344-1.472 0-.752.448-1.536 1.392-2.208.512.608 1.168 1.344 1.936 2.256-.624.976-1.312 1.424-1.984 1.424Zm21.994.912 1.2-.08c-.08-1.808-.112-4.368-.112-7.792H98.79c0 2.752.032 4.8.064 6.208-.592.432-1.248.72-2 .72-.976 0-1.552-.512-1.552-2.048v-4.928l-1.296.096v5.264c0 1.936.912 2.72 2.304 2.72 1.12 0 1.952-.512 2.608-1.056l.08.896Zm9.773 0 1.44-.08-2.832-3.888 2.864-3.904h-1.392l-2.256 3.184-2.336-3.216-1.424.08 2.864 3.888-2.88 3.904h1.376l2.272-3.168 2.304 3.2ZM14.393 175.8c-3.767 0-6.533-.95-8.3-2.85-1.766-1.9-2.65-5.05-2.65-9.45 0-3.5.584-7.267 1.75-11.3 1.2-4.033 3.1-7.483 5.7-10.35 2.633-2.9 5.967-4.35 10-4.35 2.5 0 4.517.55 6.05 1.65 1.534 1.1 2.3 2.783 2.3 5.05 0 1.433-.283 2.567-.85 3.4-.567.8-1.45 1.2-2.65 1.2s-2.15-.433-2.85-1.3c.6-.3 1.133-.9 1.6-1.8.467-.9.7-1.833.7-2.8 0-.9-.25-1.633-.75-2.2-.466-.567-1.233-.85-2.3-.85-1.767 0-3.45 1.217-5.05 3.65-1.6 2.4-2.9 5.433-3.9 9.1-.966 3.667-1.45 7.2-1.45 10.6 0 2.533.434 4.467 1.3 5.8.867 1.333 2.434 2 4.7 2 1.967 0 3.784-.433 5.45-1.3 1.667-.867 3.1-2.1 4.3-3.7l1.15.5c-.833 2.1-2.067 3.85-3.7 5.25s-3.383 2.433-5.25 3.1c-1.867.633-3.633.95-5.3.95Zm33.004-.5c-2.034 0-3.534-.533-4.5-1.6-.934-1.1-1.4-2.45-1.4-4.05 0-.7.083-1.483.25-2.35.166-.9.333-1.767.5-2.6.2-.833.333-1.367.4-1.6.266-1.167.516-2.317.75-3.45.233-1.133.35-2.05.35-2.75 0-1.7-.6-2.55-1.8-2.55-.867 0-1.634.433-2.3 1.3-.667.833-1.2 1.933-1.6 3.3l-3.4 16.05h-7.2l7.25-34 7.4-1-2.7 12.6c1.666-1.867 3.616-2.8 5.85-2.8 1.7 0 3.05.467 4.05 1.4 1 .933 1.5 2.35 1.5 4.25 0 .967-.117 2.05-.35 3.25a87.032 87.032 0 0 1-1 4.3c-.267 1.033-.517 2.05-.75 3.05-.2.967-.3 1.733-.3 2.3 0 .667.15 1.183.45 1.55.3.367.816.55 1.55.55 1 0 1.8-.35 2.4-1.05.6-.733 1.2-1.85 1.8-3.35h2.1c-1.234 3.667-2.667 6.133-4.3 7.4-1.6 1.233-3.267 1.85-5 1.85Zm17.544-28c-1.1 0-2.034-.383-2.8-1.15-.767-.767-1.15-1.7-1.15-2.8 0-1.1.383-2.033 1.15-2.8.767-.8 1.7-1.2 2.8-1.2 1.1 0 2.033.4 2.8 1.2.8.767 1.2 1.7 1.2 2.8 0 1.1-.4 2.033-1.2 2.8-.767.767-1.7 1.15-2.8 1.15Zm-3.4 28c-1.6 0-2.9-.5-3.9-1.5-.967-1-1.45-2.5-1.45-4.5 0-.833.133-1.917.4-3.25l3.4-16.05h7.2l-3.6 17c-.133.5-.2 1.033-.2 1.6 0 .667.15 1.15.45 1.45.333.267.866.4 1.6.4.966 0 1.867-.4 2.7-1.2.833-.833 1.433-1.9 1.8-3.2h2.1c-1.233 3.6-2.817 6.05-4.75 7.35-1.933 1.267-3.85 1.9-5.75 1.9Zm16.38 0c-1.9 0-3.483-.65-4.75-1.95-1.267-1.3-1.9-3.333-1.9-6.1 0-2.467.483-5.05 1.45-7.75 1-2.733 2.467-5.033 4.4-6.9 1.967-1.9 4.3-2.85 7-2.85 1.367 0 2.383.233 3.05.7.667.467 1 1.083 1 1.85v.35l.55-2.65h7.2l-3.6 17c-.133.5-.2 1.033-.2 1.6 0 1.433.683 2.15 2.05 2.15.933 0 1.733-.433 2.4-1.3.7-.867 1.25-2 1.65-3.4h2.1c-1.233 3.6-2.767 6.05-4.6 7.35-1.8 1.267-3.617 1.9-5.45 1.9-1.4 0-2.533-.383-3.4-1.15-.833-.8-1.333-1.95-1.5-3.45-.967 1.367-2.05 2.483-3.25 3.35-1.167.833-2.567 1.25-4.2 1.25Zm3.25-4.85c.833 0 1.65-.383 2.45-1.15.833-.8 1.4-1.883 1.7-3.25l2.4-11.3c0-.433-.167-.85-.5-1.25-.333-.433-.85-.65-1.55-.65-1.333 0-2.533.783-3.6 2.35-1.067 1.533-1.9 3.4-2.5 5.6-.6 2.167-.9 4.083-.9 5.75 0 1.667.233 2.733.7 3.2.5.467 1.1.7 1.8.7Zm37.118 4.85c-2.033 0-3.533-.533-4.5-1.6-.933-1.1-1.4-2.45-1.4-4.05 0-.7.084-1.483.25-2.35.167-.9.334-1.767.5-2.6.2-.833.334-1.367.4-1.6.267-1.167.517-2.317.75-3.45.234-1.133.35-2.05.35-2.75 0-1.7-.6-2.55-1.8-2.55-.866 0-1.633.433-2.3 1.3-.666.833-1.2 1.933-1.6 3.3l-3.4 16.05h-7.2l5.3-25h7.2l-.55 2.6c1.667-1.867 3.617-2.8 5.85-2.8 1.7 0 3.05.467 4.05 1.4 1 .933 1.5 2.35 1.5 4.25 0 .967-.116 2.05-.35 3.25a85.79 85.79 0 0 1-1 4.3c-.266 1.033-.516 2.05-.75 3.05-.2.967-.3 1.733-.3 2.3 0 .667.15 1.183.45 1.55.3.367.817.55 1.55.55 1 0 1.8-.35 2.4-1.05.6-.733 1.2-1.85 1.8-3.35h2.1c-1.233 3.667-2.666 6.133-4.3 7.4-1.6 1.233-3.266 1.85-5 1.85Zm17.994 12.2c-1.566 0-2.95-.517-4.15-1.55-1.166-1-1.75-2.283-1.75-3.85 0-1.467.367-2.667 1.1-3.6.734-.933 1.684-1.667 2.85-2.2 1.167-.533 2.734-1.1 4.7-1.7l.45-2.1c-1.733 1.867-3.733 2.8-6 2.8-1.9 0-3.483-.65-4.75-1.95-1.266-1.3-1.9-3.333-1.9-6.1 0-2.467.484-5.05 1.45-7.75 1-2.733 2.467-5.033 4.4-6.9 1.967-1.9 4.3-2.85 7-2.85 1.367 0 2.384.233 3.05.7.667.467 1 1.083 1 1.85v.1l.5-2.4h7.25l-6.1 29c-.666 3.2-1.85 5.417-3.55 6.65-1.666 1.233-3.516 1.85-5.55 1.85Zm.45-17.05c.767 0 1.534-.317 2.3-.95.8-.667 1.367-1.6 1.7-2.8l2.55-12.1c-.266-1.167-.95-1.75-2.05-1.75-1.333 0-2.533.783-3.6 2.35-1.066 1.533-1.9 3.4-2.5 5.6-.6 2.167-.9 4.083-.9 5.75 0 1.667.234 2.733.7 3.2.5.467 1.1.7 1.8.7Zm-1.6 12.6c.6 0 1.167-.317 1.7-.95.534-.6.95-1.583 1.25-2.95l.6-2.95c-1.766.6-3.133 1.3-4.1 2.1-.966.8-1.45 1.833-1.45 3.1 0 .4.2.767.6 1.1.4.367.867.55 1.4.55ZM19.532 221.711l-3.38-3.782-.824.736 3.317 3.71.887-.664Zm5.24 10.652c-.989-.788-1.08-2.109.166-3.673 1.237-1.552 2.78-1.692 3.907-.794.325.259.613.591.873.983a219.019 219.019 0 0 0-3.164 4.046c-.614.001-1.27-.153-1.782-.562Zm.907 1.89.991.708c1.045-1.438 2.566-3.397 4.76-6.15l2.174-2.727-1.083-.72-2.005 2.514a5.145 5.145 0 0 0-.52-.476c-1.864-1.486-4.483-1.487-6.268.752-1.447 1.815-1.339 3.681-.013 4.738.751.599 1.643.737 2.41.673l-.446.688Zm12.899 8.333.646-.904c-3.272-1.918-3.954-3.099-3.168-4.786l4.753 2.481c1.506-2.13 1.39-4.169-.487-5.205-1.779-.983-4.125-.178-5.278 1.909-1.23 2.227-.757 4.115 3.535 6.505Zm1.029-7.585c1.148.635 1.238 1.763.525 3.087-.982-.506-2.89-1.487-3.69-1.892.897-1.424 2.03-1.821 3.165-1.195Zm10.033 10.757-.121-.042a133.03 133.03 0 0 1-.038-7.065l-1.25-.352c-.045 2.747-.006 5.54.125 8.366l1.54.539c1.858-2.113 3.692-4.302 5.374-6.494l-1.238-.433a113.349 113.349 0 0 1-4.393 5.481Zm16.146 5.354.31-1.067c-3.722-.729-4.755-1.619-4.57-3.47l5.305.771c.718-2.507-.065-4.393-2.179-4.752-2.003-.34-3.952 1.195-4.351 3.545-.426 2.509.645 4.135 5.485 4.973Zm-1.534-7.499c1.293.22 1.75 1.255 1.514 2.741a870.698 870.698 0 0 0-4.107-.568c.376-1.64 1.315-2.39 2.593-2.173Zm16.078 8.056.111-.992h-2.56v-10.176h-3.616l-.112.928 2.416.112v9.136h-2.544v.992h6.304Zm10.931-.932c1.988-.337 3.36-2.291 2.926-4.846-.42-2.477-2.024-3.697-3.948-3.37-1.988.337-3.37 2.325-2.944 4.833.423 2.492 2.058 3.708 3.966 3.383Zm.026-1.091c-1.31.222-2.396-.729-2.739-2.748-.322-1.893.385-3.084 1.647-3.299 1.325-.225 2.414.742 2.755 2.746.324 1.908-.385 3.084-1.663 3.301Zm13.323-3.476a3.943 3.943 0 0 1-1.317.206 264.142 264.142 0 0 0-1.767-4.806c.367-.552.886-1.005 1.475-1.211 1.163-.407 2.367.274 3.012 2.116.65 1.858-.059 3.224-1.403 3.695Zm-.06 3.801-.829-2.371c.287-.05.564-.13.821-.22 2.19-.766 3.503-2.971 2.574-5.63-.756-2.159-2.415-3.121-3.985-2.572-.922.322-1.519.989-1.904 1.683l-.344-.744-1.092.467c.625 1.544 1.422 3.774 2.675 7.353l.898 2.567 1.186-.533Zm16.321-10.089-.422-1.029c-3.366 1.75-4.728 1.699-5.738.136l4.629-2.704c-1.001-2.408-2.789-3.394-4.666-2.357-1.778.983-2.345 3.398-1.192 5.484 1.231 2.227 3.082 2.831 7.389.47Zm-5.874-4.908c1.148-.634 2.151-.11 2.892 1.199-.951.562-2.796 1.655-3.565 2.116-.729-1.517-.462-2.688.673-3.315Zm17.13-3.354-.531-.846-2.077 1.656c-1.149-1.416-2.132-2.597-2.992-3.651.326-.976.995-1.96 2.166-3.057l-.907-1.036c-1.144 1.157-1.684 2.406-1.785 3.51a40.254 40.254 0 0 0-.913-.991l-2.377 1.895.503.786 1.621-1.149c1.015 1.196 2.175 2.624 3.696 4.481l-1.626 1.297.618.775 4.604-3.67Zm6.196-13.601-3.38 3.781.823.736 3.316-3.71-.759-.807ZM42.4 136.16c-5.04 0-9.48-.88-13.32-2.64-3.84-1.76-6.8-4.2-8.88-7.32-2.08-3.2-3.12-6.88-3.12-11.04 0-3.52.72-6.72 2.16-9.6 1.52-2.88 3.52-5.16 6-6.84 2.56-1.68 5.36-2.52 8.4-2.52 2.8 0 5.16.72 7.08 2.16 1.92 1.36 3.12 3.28 3.6 5.76-4.16 0-7.48 1.12-9.96 3.36-2.48 2.16-3.72 5.12-3.72 8.88 0 3.44 1.04 6.2 3.12 8.28 2.08 2.08 4.84 3.12 8.28 3.12 4.24 0 7.72-1.4 10.44-4.2 2.8-2.88 4.2-6.48 4.2-10.8 0-3.76-1.04-7.32-3.12-10.68-2.08-3.36-5.2-7.44-9.36-12.24-4.32-4.96-7.6-9.2-9.84-12.72-2.16-3.6-3.24-7.52-3.24-11.76 0-4.16 1.16-7.88 3.48-11.16 2.32-3.36 5.52-6 9.6-7.92S52.88 43.4 58 43.4c6.48 0 11.64 1.52 15.48 4.56 3.92 3.04 5.88 7.12 5.88 12.24 0 3.36-.84 6.08-2.52 8.16-1.68 2.08-3.88 3.12-6.6 3.12-3.04 0-5.48-1.24-7.32-3.72 1.52-1.12 2.72-2.6 3.6-4.44.88-1.84 1.32-3.76 1.32-5.76 0-2.56-.76-4.6-2.28-6.12-1.52-1.52-3.6-2.28-6.24-2.28-3.2 0-5.84 1.16-7.92 3.48-2 2.24-3 5.12-3 8.64 0 3.2.92 6.2 2.76 9C53 73 55.88 76.52 59.8 80.84c3.2 3.44 5.76 6.4 7.68 8.88 2 2.48 3.68 5.36 5.04 8.64 1.44 3.2 2.16 6.68 2.16 10.44 0 5.12-1.44 9.76-4.32 13.92-2.8 4.16-6.68 7.44-11.64 9.84-4.88 2.4-10.32 3.6-16.32 3.6ZM95.29 92l.105-1.035H93.1V82.37l-1.185.105v1.065l-2.385.285.015.885 2.37-.12v6.375H89.35V92h5.94Zm3.567.33c3.165-1.5 4.605-3.585 4.605-6.18 0-2.37-1.26-3.615-3.075-3.615-1.665 0-3.135 1.215-3.135 3.165 0 2.64 2.85 3.51 4.965 1.695-.315 1.59-1.395 2.835-3.87 3.885l.51 1.05Zm-.465-6.78c0-1.26.84-2.025 1.875-2.025 1.185 0 2.055.885 2.055 2.76v.315c-1.89 1.5-3.93.99-3.93-1.05Zm44.568 6.63c1.965 0 3.24-1.11 3.24-2.505 0-1.185-1.05-1.89-2.175-2.505 1.245-.6 1.995-1.35 1.995-2.49 0-1.32-1.2-2.16-2.775-2.16-1.95 0-3.015 1.215-3.015 2.4 0 1.08.885 1.785 1.905 2.385-1.26.645-2.07 1.515-2.07 2.64 0 1.365 1.215 2.235 2.895 2.235Zm-1.56-7.41c0-.675.585-1.305 1.74-1.305 1.125 0 1.74.615 1.74 1.44 0 .78-.57 1.41-1.515 1.89-1.05-.555-1.965-1.125-1.965-2.025Zm1.725 6.465c-1.23 0-1.89-.645-1.89-1.56 0-.795.555-1.485 1.56-1.98 1.14.63 2.22 1.23 2.22 2.145 0 .795-.735 1.395-1.89 1.395Zm11.412.765.105-1.035h-2.295V82.37l-1.185.105v1.065l-2.385.285.015.885 2.37-.12v6.375h-2.565V92h5.94Z" fill="#263238"/><path d="M118.125 90.45c-1.05 0-1.975-.183-2.775-.55-.8-.367-1.417-.875-1.85-1.525-.433-.667-.65-1.433-.65-2.3 0-.733.15-1.4.45-2 .317-.6.733-1.075 1.25-1.425a3.125 3.125 0 0 1 1.75-.525c.583 0 1.075.15 1.475.45.4.283.65.683.75 1.2-.867 0-1.558.233-2.075.7-.517.45-.775 1.067-.775 1.85 0 .717.217 1.292.65 1.725.433.433 1.008.65 1.725.65.883 0 1.608-.292 2.175-.875.583-.6.875-1.35.875-2.25 0-.783-.217-1.525-.65-2.225-.433-.7-1.083-1.55-1.95-2.55-.9-1.033-1.583-1.917-2.05-2.65a4.676 4.676 0 0 1-.675-2.45c0-.867.242-1.642.725-2.325.483-.7 1.15-1.25 2-1.65.85-.4 1.808-.6 2.875-.6 1.35 0 2.425.317 3.225.95.817.633 1.225 1.483 1.225 2.55 0 .7-.175 1.267-.525 1.7-.35.433-.808.65-1.375.65-.633 0-1.142-.258-1.525-.775.317-.233.567-.542.75-.925.183-.383.275-.783.275-1.2 0-.533-.158-.958-.475-1.275-.317-.317-.75-.475-1.3-.475-.667 0-1.217.242-1.65.725-.417.467-.625 1.067-.625 1.8 0 .667.192 1.292.575 1.875.383.567.983 1.3 1.8 2.2.667.717 1.2 1.333 1.6 1.85a7.28 7.28 0 0 1 1.05 1.8c.3.667.45 1.392.45 2.175 0 1.067-.3 2.033-.9 2.9-.583.867-1.392 1.55-2.425 2.05-1.017.5-2.15.75-3.4.75Z" fill="#F56A5C"/><path d="M124.95 99.4c-1.883 0-3.267-.475-4.15-1.425-.883-.95-1.325-2.525-1.325-4.725 0-1.75.292-3.633.875-5.65.6-2.017 1.55-3.742 2.85-5.175 1.317-1.45 2.983-2.175 5-2.175 1.25 0 2.258.275 3.025.825.767.55 1.15 1.392 1.15 2.525 0 .717-.142 1.283-.425 1.7-.283.4-.725.6-1.325.6s-1.075-.217-1.425-.65c.3-.15.567-.45.8-.9.233-.45.35-.917.35-1.4 0-.45-.125-.817-.375-1.1-.233-.283-.617-.425-1.15-.425-.883 0-1.725.608-2.525 1.825-.8 1.2-1.45 2.717-1.95 4.55-.483 1.833-.725 3.6-.725 5.3 0 1.267.217 2.233.65 2.9.433.667 1.217 1 2.35 1 .983 0 1.892-.217 2.725-.65a6.316 6.316 0 0 0 2.15-1.85l.575.25c-.417 1.05-1.033 1.925-1.85 2.625a8.333 8.333 0 0 1-2.625 1.55c-.933.317-1.817.475-2.65.475Z" fill="#F56A5C"/><path d="M76.325 136.186c-.993 0-1.799-.31-2.419-.93-.599-.62-.899-1.55-.899-2.79 0-.517.083-1.188.248-2.015l1.86-8.711h-1.022l.248-1.24h1.023l.93-4.278 4.588-.62-1.055 4.898h1.86l-.248 1.24h-1.86l-1.983 9.3c-.083.31-.124.641-.124.992 0 .413.093.713.279.899.206.165.537.248.992.248.599 0 1.157-.248 1.674-.744.516-.517.888-1.178 1.115-1.984h1.303c-.765 2.232-1.747 3.751-2.945 4.557-1.2.785-2.388 1.178-3.566 1.178Zm10.868 0c-1.53 0-2.718-.393-3.565-1.178-.847-.806-1.27-2.056-1.27-3.751 0-1.426.278-2.997.836-4.712a10.817 10.817 0 0 1 2.728-4.433c1.26-1.261 2.862-1.891 4.805-1.891 2.273 0 3.41.992 3.41 2.976a5.55 5.55 0 0 1-.992 3.193c-.661.971-1.54 1.757-2.635 2.356a8.649 8.649 0 0 1-3.503.992 23.7 23.7 0 0 0-.062 1.24c0 1.013.176 1.705.527 2.077.352.351.92.527 1.705.527 1.116 0 2.067-.258 2.852-.775.806-.517 1.684-1.302 2.635-2.356h1.054c-2.294 3.823-5.136 5.735-8.525 5.735Zm.062-7.936c.765-.041 1.488-.31 2.17-.806a5.456 5.456 0 0 0 1.674-1.891 4.828 4.828 0 0 0 .651-2.418c0-.847-.258-1.271-.775-1.271-.744 0-1.477.651-2.2 1.953-.704 1.302-1.21 2.78-1.52 4.433Zm10.999-8.897h4.464l-.496 2.325c1.033-.889 2.242-1.333 3.627-1.333 1.157 0 2.077.382 2.759 1.147.682.765 1.023 2.015 1.023 3.751 0 1.633-.238 3.286-.713 4.96-.476 1.653-1.282 3.069-2.418 4.247-1.137 1.157-2.635 1.736-4.495 1.736-1.323 0-2.201-.372-2.635-1.116l-1.612 7.564-4.681 1.116 5.177-24.397Zm2.79 14.136c.992 0 1.808-.465 2.449-1.395.661-.93 1.136-2.036 1.426-3.317.31-1.302.465-2.511.465-3.627 0-1.715-.517-2.573-1.55-2.573-.372 0-.755.134-1.147.403-.372.269-.703.641-.992 1.116l-1.83 8.68c.166.475.559.713 1.179.713Zm21.786 2.697c-1.261 0-2.191-.331-2.79-.992-.579-.682-.868-1.519-.868-2.511 0-.434.051-.92.155-1.457.103-.558.206-1.095.31-1.612.124-.517.206-.847.248-.992.165-.723.32-1.436.465-2.139.144-.703.217-1.271.217-1.705 0-1.054-.372-1.581-1.116-1.581-.538 0-1.013.269-1.426.806-.414.517-.744 1.199-.992 2.046L114.925 136h-4.464l4.495-21.08 4.588-.62-1.674 7.812c1.033-1.157 2.242-1.736 3.627-1.736 1.054 0 1.891.289 2.511.868.62.579.93 1.457.93 2.635 0 .599-.073 1.271-.217 2.015a55.206 55.206 0 0 1-.62 2.666 77.311 77.311 0 0 0-.465 1.891c-.124.599-.186 1.075-.186 1.426 0 .413.093.734.279.961.186.227.506.341.961.341.62 0 1.116-.217 1.488-.651.372-.455.744-1.147 1.116-2.077h1.302c-.765 2.273-1.654 3.803-2.666 4.588-.992.765-2.026 1.147-3.1 1.147Zm10.133 0c-1.529 0-2.718-.393-3.565-1.178-.847-.806-1.271-2.056-1.271-3.751 0-1.426.279-2.997.837-4.712a10.813 10.813 0 0 1 2.728-4.433c1.261-1.261 2.862-1.891 4.805-1.891 2.273 0 3.41.992 3.41 2.976a5.557 5.557 0 0 1-.992 3.193c-.661.971-1.54 1.757-2.635 2.356a8.647 8.647 0 0 1-3.503.992 23.7 23.7 0 0 0-.062 1.24c0 1.013.176 1.705.527 2.077.351.351.92.527 1.705.527 1.116 0 2.067-.258 2.852-.775.806-.517 1.684-1.302 2.635-2.356h1.054c-2.294 3.823-5.136 5.735-8.525 5.735Zm.062-7.936c.765-.041 1.488-.31 2.17-.806a5.45 5.45 0 0 0 1.674-1.891 4.828 4.828 0 0 0 .651-2.418c0-.847-.258-1.271-.775-1.271-.744 0-1.478.651-2.201 1.953-.703 1.302-1.209 2.78-1.519 4.433Zm19.306 7.936c-1.095 0-1.891-.331-2.387-.992s-.744-1.498-.744-2.511c0-.434.052-.92.155-1.457.104-.558.207-1.095.31-1.612.124-.517.207-.847.248-.992a92.59 92.59 0 0 0 .465-2.139c.145-.703.217-1.271.217-1.705 0-1.054-.372-1.581-1.116-1.581-.537 0-1.012.269-1.426.806-.413.517-.744 1.199-.992 2.046L144.953 136h-4.464l3.286-15.5h4.464l-.341 1.612c1.034-1.157 2.243-1.736 3.627-1.736 1.054 0 1.891.289 2.511.868.62.579.93 1.457.93 2.635 0 .599-.072 1.271-.217 2.015a52.906 52.906 0 0 1-.62 2.666c-.165.641-.32 1.271-.465 1.891-.124.599-.186 1.075-.186 1.426 0 .413.093.734.279.961.186.227.507.341.961.341.496 0 .837-.062 1.023-.186-.124 1.054-.506 1.85-1.147 2.387-.62.537-1.374.806-2.263.806ZM11.887 47.465 9.54 51.96l.979.51 2.303-4.41-.934-.596Zm5.998-6.669c1.867 1.507 4.083 1.59 6.82-2.308l-.757-.796c-2.275 3.098-3.79 3.294-5.396 1.997-1.295-1.045-1.661-2.349.894-5.488l-1.019-.7c-2.79 3.609-2.223 5.938-.542 7.295Zm14.481-9.488c1.55-1.288 1.758-3.667.102-5.66-1.606-1.932-3.605-2.185-5.106-.937-1.55 1.289-1.75 3.702-.125 5.658 1.616 1.944 3.64 2.176 5.129.939Zm-.525-.957c-1.022.848-2.439.57-3.748-1.005-1.227-1.477-1.213-2.862-.229-3.68 1.034-.859 2.462-.568 3.76.995 1.238 1.489 1.213 2.861.217 3.69Zm8.748-13.186c.872-.471 1.644-.288 2.359 1.035l2.32 4.294 1.14-.616-2.525-4.674c-.913-1.689-2.102-1.938-3.34-1.269-.986.533-1.496 1.372-1.815 2.163l-.496-.75-1.018.64c.93 1.553 2.175 3.79 3.802 6.803l1.14-.616c-1.3-2.408-2.31-4.208-3.014-5.446.337-.655.785-1.206 1.447-1.564Zm15.8-7.395c-3.914.88-4.824 2.497-4.459 3.69.577 1.882 4.834.813 5.242 2.144.206.673-.559 1.51-3.912 2.252l.291 1.115c4.277-1.058 5.248-2.644 4.873-3.868-.586-1.912-4.911-.956-5.29-2.195-.188-.612.479-1.385 3.638-2.051l-.383-1.088Zm16.164 5.446.036-1.097c-2.616.212-3.399-.064-3.533-1.417l-.407-4.092 3.184-.317-.1-1.003-3.184.317-.226-2.277-1.279.24.216 2.165-1.481.147-.028 1.016 1.608-.16.428 4.299c.191 1.926 1.396 2.562 4.766 2.18Zm12.575.366 1.202.04c.099-1.808.32-4.359.659-7.766l-1.29-.128a277.45 277.45 0 0 0-.55 6.184c-.632.371-1.313.593-2.061.519-.971-.097-1.494-.663-1.342-2.192l.487-4.904-1.299-.032-.52 5.238c-.192 1.926.638 2.797 2.023 2.934 1.115.111 1.993-.316 2.7-.793l-.01.9Zm14.5 3.368.398-.916-2.448-.75 2.98-9.73L97.1 6.497l-.379.855L99 8.165l-2.676 8.736-2.432-.745-.29.948 6.027 1.846Zm9.593 3.386c-.859-.464-1.194-1.19-.798-1.922.509-.944 1.636-1.044 4.012.585a55.18 55.18 0 0 0-.854 1.648c-.763.133-1.67.062-2.36-.311Zm1.693 1.915 1.08.492c.476-1.015.944-2.017 1.72-3.453 1.437-2.66.816-4.07-3.107-6.334l-.659.917c3.022 1.778 3.674 2.658 2.914 4.302-2.956-1.834-4.942-1.524-5.71-.102-.601 1.112-.107 2.251 1.146 2.928 1.084.586 2.152.526 2.997.31-.139.325-.319.792-.381.94Zm14.219 1.492c.763.634.881 1.419-.08 2.575l-3.12 3.753.997.829 3.395-4.086c1.228-1.476 1.015-2.672-.068-3.572-.861-.716-1.831-.877-2.683-.878l.511-.74-.974-.705c-1.094 1.441-2.705 3.43-4.894 6.064l.997.828a277.928 277.928 0 0 0 3.929-4.827c.733.068 1.412.278 1.99.76Zm6.737 17.235.937-.571c-1.611-2.072-1.81-2.878-.752-3.732l3.2-2.584 2.01 2.49.784-.633-2.01-2.49 1.78-1.438-.901-.938-1.693 1.368-.935-1.158-.865.534 1.015 1.257-3.361 2.714c-1.506 1.216-1.377 2.572.791 5.181Zm11.565 8.876-2.348-4.496-.979.511 2.303 4.411 1.024-.426Z" fill="#263238"/></g><defs><clipPath id="a"><path fill="#fff" d="M0 0h156v255.669H0z"/></clipPath></defs></svg>