<svg width="156" height="256" viewBox="0 0 156 256" fill="none" xmlns="http://www.w3.org/2000/svg">
<g clip-path="url(#clip0_176_1151)">
<path d="M41.9605 203H43.1605C43.4325 201.144 43.7685 198.104 43.9445 195.16H42.7285C42.6165 197.4 42.5045 199.288 42.3765 201.4H42.3125C42.1525 200.888 41.0325 197.704 40.9045 197.304H40.1045C39.9925 197.688 38.8885 200.872 38.7285 201.368H38.6645C38.5045 199.256 38.3925 197.384 38.2805 195.16H37.0005C37.1765 198.104 37.5125 201.144 37.8005 203H38.9685L40.4565 198.616L41.9605 203ZM52.8054 203.176L52.9334 202.072C49.1414 201.976 47.9734 201.272 47.8454 199.416L53.2054 199.288C53.4934 196.696 52.4054 194.968 50.2614 194.968C48.2294 194.968 46.5654 196.808 46.5654 199.192C46.5654 201.736 47.8934 203.16 52.8054 203.176ZM50.0374 196.04C51.3494 196.04 51.9734 196.984 51.9894 198.488C50.8854 198.52 48.7414 198.584 47.8454 198.616C47.9414 196.936 48.7414 196.04 50.0374 196.04ZM58.6902 203.192C60.8662 203.192 62.8502 201.496 62.8502 198.728C62.8502 196.44 61.6182 194.984 59.9382 194.984C59.0102 194.984 58.2582 195.384 57.6822 195.864V191.704L56.3862 191.816V202.792C57.1062 203.048 57.8742 203.192 58.6902 203.192ZM59.1382 202.072C58.6582 202.072 58.1782 201.976 57.6822 201.8V196.68C58.1942 196.296 58.8182 196.056 59.4262 196.056C60.6742 196.056 61.5702 197.096 61.5702 199.048C61.5702 201.048 60.5462 202.072 59.1382 202.072ZM82.092 202.392C81.436 201.592 80.844 200.904 80.316 200.296C80.844 199.352 81.356 198.088 81.708 196.664L80.588 196.52C80.364 197.608 80.028 198.664 79.66 199.528C77.756 197.352 76.876 196.408 76.876 195.576C76.876 194.712 77.548 193.976 80.156 194.104L80.06 192.888C76.652 192.824 75.596 194.28 75.596 195.656C75.596 196.344 75.916 196.984 76.556 197.816C75.148 198.712 74.428 199.72 74.428 200.92C74.428 202.2 75.212 203.192 76.732 203.192C77.756 203.192 78.78 202.648 79.596 201.416C80.044 201.96 80.54 202.552 81.052 203.208L82.092 202.392ZM77.004 202.12C76.124 202.12 75.66 201.496 75.66 200.648C75.66 199.896 76.108 199.112 77.052 198.44C77.564 199.048 78.22 199.784 78.988 200.696C78.364 201.672 77.676 202.12 77.004 202.12ZM98.9977 203.032L100.198 202.952C100.118 201.144 100.086 198.584 100.086 195.16H98.7897C98.7897 197.912 98.8217 199.96 98.8537 201.368C98.2617 201.8 97.6057 202.088 96.8537 202.088C95.8777 202.088 95.3017 201.576 95.3017 200.04V195.112L94.0057 195.208V200.472C94.0057 202.408 94.9177 203.192 96.3097 203.192C97.4297 203.192 98.2617 202.68 98.9177 202.136L98.9977 203.032ZM108.771 203.032L110.211 202.952L107.379 199.064L110.243 195.16H108.851L106.595 198.344L104.259 195.128L102.835 195.208L105.699 199.096L102.819 203H104.195L106.467 199.832L108.771 203.032Z" fill="white"/>
<path d="M14.3932 175.8C10.6265 175.8 7.85983 174.85 6.09316 172.95C4.3265 171.05 3.44316 167.9 3.44316 163.5C3.44316 160 4.0265 156.233 5.19316 152.2C6.39316 148.167 8.29316 144.717 10.8932 141.85C13.5265 138.95 16.8598 137.5 20.8932 137.5C23.3932 137.5 25.4098 138.05 26.9432 139.15C28.4765 140.25 29.2432 141.933 29.2432 144.2C29.2432 145.633 28.9598 146.767 28.3932 147.6C27.8265 148.4 26.9432 148.8 25.7432 148.8C24.5432 148.8 23.5932 148.367 22.8932 147.5C23.4932 147.2 24.0265 146.6 24.4932 145.7C24.9598 144.8 25.1932 143.867 25.1932 142.9C25.1932 142 24.9432 141.267 24.4432 140.7C23.9765 140.133 23.2098 139.85 22.1432 139.85C20.3765 139.85 18.6932 141.067 17.0932 143.5C15.4932 145.9 14.1932 148.933 13.1932 152.6C12.2265 156.267 11.7432 159.8 11.7432 163.2C11.7432 165.733 12.1765 167.667 13.0432 169C13.9098 170.333 15.4765 171 17.7432 171C19.7098 171 21.5265 170.567 23.1932 169.7C24.8598 168.833 26.2932 167.6 27.4932 166L28.6432 166.5C27.8098 168.6 26.5765 170.35 24.9432 171.75C23.3098 173.15 21.5598 174.183 19.6932 174.85C17.8265 175.483 16.0598 175.8 14.3932 175.8ZM47.3967 175.3C45.3633 175.3 43.8633 174.767 42.8967 173.7C41.9633 172.6 41.4967 171.25 41.4967 169.65C41.4967 168.95 41.58 168.167 41.7467 167.3C41.9133 166.4 42.08 165.533 42.2467 164.7C42.4467 163.867 42.58 163.333 42.6467 163.1C42.9133 161.933 43.1633 160.783 43.3967 159.65C43.63 158.517 43.7467 157.6 43.7467 156.9C43.7467 155.2 43.1467 154.35 41.9467 154.35C41.08 154.35 40.3133 154.783 39.6467 155.65C38.98 156.483 38.4467 157.583 38.0467 158.95L34.6467 175H27.4467L34.6967 141L42.0967 140L39.3967 152.6C41.0633 150.733 43.0133 149.8 45.2467 149.8C46.9467 149.8 48.2967 150.267 49.2967 151.2C50.2967 152.133 50.7967 153.55 50.7967 155.45C50.7967 156.417 50.68 157.5 50.4467 158.7C50.2133 159.867 49.88 161.3 49.4467 163C49.18 164.033 48.93 165.05 48.6967 166.05C48.4967 167.017 48.3967 167.783 48.3967 168.35C48.3967 169.017 48.5467 169.533 48.8467 169.9C49.1467 170.267 49.6633 170.45 50.3967 170.45C51.3967 170.45 52.1967 170.1 52.7967 169.4C53.3967 168.667 53.9967 167.55 54.5967 166.05H56.6967C55.4633 169.717 54.03 172.183 52.3967 173.45C50.7967 174.683 49.13 175.3 47.3967 175.3ZM64.9408 147.3C63.8408 147.3 62.9075 146.917 62.1408 146.15C61.3742 145.383 60.9908 144.45 60.9908 143.35C60.9908 142.25 61.3742 141.317 62.1408 140.55C62.9075 139.75 63.8408 139.35 64.9408 139.35C66.0408 139.35 66.9742 139.75 67.7408 140.55C68.5408 141.317 68.9408 142.25 68.9408 143.35C68.9408 144.45 68.5408 145.383 67.7408 146.15C66.9742 146.917 66.0408 147.3 64.9408 147.3ZM61.5408 175.3C59.9408 175.3 58.6408 174.8 57.6408 173.8C56.6742 172.8 56.1908 171.3 56.1908 169.3C56.1908 168.467 56.3242 167.383 56.5908 166.05L59.9908 150H67.1908L63.5908 167C63.4575 167.5 63.3908 168.033 63.3908 168.6C63.3908 169.267 63.5408 169.75 63.8408 170.05C64.1742 170.317 64.7075 170.45 65.4408 170.45C66.4075 170.45 67.3075 170.05 68.1408 169.25C68.9742 168.417 69.5742 167.35 69.9408 166.05H72.0408C70.8075 169.65 69.2242 172.1 67.2908 173.4C65.3575 174.667 63.4408 175.3 61.5408 175.3ZM77.9209 175.3C76.0209 175.3 74.4376 174.65 73.1709 173.35C71.9042 172.05 71.2709 170.017 71.2709 167.25C71.2709 164.783 71.7542 162.2 72.7209 159.5C73.7209 156.767 75.1876 154.467 77.1209 152.6C79.0876 150.7 81.4209 149.75 84.1209 149.75C85.4876 149.75 86.5042 149.983 87.1709 150.45C87.8376 150.917 88.1709 151.533 88.1709 152.3V152.65L88.7209 150H95.9209L92.3209 167C92.1876 167.5 92.1209 168.033 92.1209 168.6C92.1209 170.033 92.8042 170.75 94.1709 170.75C95.1042 170.75 95.9042 170.317 96.5709 169.45C97.2709 168.583 97.8209 167.45 98.2209 166.05H100.321C99.0876 169.65 97.5542 172.1 95.7209 173.4C93.9209 174.667 92.1042 175.3 90.2709 175.3C88.8709 175.3 87.7376 174.917 86.8709 174.15C86.0376 173.35 85.5376 172.2 85.3709 170.7C84.4042 172.067 83.3209 173.183 82.1209 174.05C80.9542 174.883 79.5542 175.3 77.9209 175.3ZM81.1709 170.45C82.0042 170.45 82.8209 170.067 83.6209 169.3C84.4542 168.5 85.0209 167.417 85.3209 166.05L87.7209 154.75C87.7209 154.317 87.5542 153.9 87.2209 153.5C86.8876 153.067 86.3709 152.85 85.6709 152.85C84.3376 152.85 83.1376 153.633 82.0709 155.2C81.0042 156.733 80.1709 158.6 79.5709 160.8C78.9709 162.967 78.6709 164.883 78.6709 166.55C78.6709 168.217 78.9042 169.283 79.3709 169.75C79.8709 170.217 80.4709 170.45 81.1709 170.45ZM118.289 175.3C116.256 175.3 114.756 174.767 113.789 173.7C112.856 172.6 112.389 171.25 112.389 169.65C112.389 168.95 112.473 168.167 112.639 167.3C112.806 166.4 112.973 165.533 113.139 164.7C113.339 163.867 113.473 163.333 113.539 163.1C113.806 161.933 114.056 160.783 114.289 159.65C114.523 158.517 114.639 157.6 114.639 156.9C114.639 155.2 114.039 154.35 112.839 154.35C111.973 154.35 111.206 154.783 110.539 155.65C109.873 156.483 109.339 157.583 108.939 158.95L105.539 175H98.3393L103.639 150H110.839L110.289 152.6C111.956 150.733 113.906 149.8 116.139 149.8C117.839 149.8 119.189 150.267 120.189 151.2C121.189 152.133 121.689 153.55 121.689 155.45C121.689 156.417 121.573 157.5 121.339 158.7C121.106 159.867 120.773 161.3 120.339 163C120.073 164.033 119.823 165.05 119.589 166.05C119.389 167.017 119.289 167.783 119.289 168.35C119.289 169.017 119.439 169.533 119.739 169.9C120.039 170.267 120.556 170.45 121.289 170.45C122.289 170.45 123.089 170.1 123.689 169.4C124.289 168.667 124.889 167.55 125.489 166.05H127.589C126.356 169.717 124.923 172.183 123.289 173.45C121.689 174.683 120.023 175.3 118.289 175.3ZM136.283 187.5C134.717 187.5 133.333 186.983 132.133 185.95C130.967 184.95 130.383 183.667 130.383 182.1C130.383 180.633 130.75 179.433 131.483 178.5C132.217 177.567 133.167 176.833 134.333 176.3C135.5 175.767 137.067 175.2 139.033 174.6L139.483 172.5C137.75 174.367 135.75 175.3 133.483 175.3C131.583 175.3 130 174.65 128.733 173.35C127.467 172.05 126.833 170.017 126.833 167.25C126.833 164.783 127.317 162.2 128.283 159.5C129.283 156.767 130.75 154.467 132.683 152.6C134.65 150.7 136.983 149.75 139.683 149.75C141.05 149.75 142.067 149.983 142.733 150.45C143.4 150.917 143.733 151.533 143.733 152.3V152.4L144.233 150H151.483L145.383 179C144.717 182.2 143.533 184.417 141.833 185.65C140.167 186.883 138.317 187.5 136.283 187.5ZM136.733 170.45C137.5 170.45 138.267 170.133 139.033 169.5C139.833 168.833 140.4 167.9 140.733 166.7L143.283 154.6C143.017 153.433 142.333 152.85 141.233 152.85C139.9 152.85 138.7 153.633 137.633 155.2C136.567 156.733 135.733 158.6 135.133 160.8C134.533 162.967 134.233 164.883 134.233 166.55C134.233 168.217 134.467 169.283 134.933 169.75C135.433 170.217 136.033 170.45 136.733 170.45ZM135.133 183.05C135.733 183.05 136.3 182.733 136.833 182.1C137.367 181.5 137.783 180.517 138.083 179.15L138.683 176.2C136.917 176.8 135.55 177.5 134.583 178.3C133.617 179.1 133.133 180.133 133.133 181.4C133.133 181.8 133.333 182.167 133.733 182.5C134.133 182.867 134.6 183.05 135.133 183.05Z" fill="white"/>
<path d="M19.5318 221.711L16.1515 217.929L15.3285 218.665L18.6448 222.375L19.5318 221.711Z" fill="white"/>
<path d="M24.7716 232.363C23.7833 231.575 23.6911 230.254 24.9379 228.69C26.1747 227.138 27.7187 226.998 28.8447 227.896C29.17 228.155 29.4579 228.487 29.7184 228.879C28.3519 230.593 27.377 231.842 26.5542 232.925C25.9395 232.926 25.2845 232.772 24.7716 232.363ZM25.6793 234.253L26.67 234.961C27.7146 233.523 29.2356 231.564 31.43 228.811L33.6044 226.084L32.5212 225.364L30.5163 227.878C30.3611 227.714 30.1835 227.552 29.9958 227.402C28.1317 225.916 25.513 225.915 23.7276 228.154C22.2813 229.969 22.3894 231.835 23.7155 232.892C24.4661 233.491 25.3584 233.629 26.1255 233.565L25.6793 234.253Z" fill="white"/>
<path d="M38.5785 242.586L39.2244 241.682C35.9519 239.764 35.27 238.583 36.0556 236.896L40.809 239.377C42.3146 237.247 42.1981 235.208 40.3215 234.172C38.543 233.189 36.1966 233.994 35.0436 236.081C33.8132 238.308 34.2869 240.196 38.5785 242.586ZM39.607 235.001C40.7553 235.636 40.8449 236.764 40.1316 238.088C39.1498 237.582 37.2423 236.601 36.4425 236.196C37.3391 234.772 38.4726 234.375 39.607 235.001Z" fill="white"/>
<path d="M49.6393 245.758L49.5185 245.716C49.4373 243.331 49.437 240.958 49.4813 238.651L48.2315 238.299C48.1858 241.046 48.2255 243.839 48.3558 246.665L49.8962 247.204C51.7542 245.091 53.588 242.902 55.27 240.71L54.0316 240.277C52.6433 242.113 51.1839 243.959 49.6393 245.758Z" fill="white"/>
<path d="M65.7856 251.112L66.0967 250.045C62.3743 249.316 61.3407 248.426 61.5254 246.575L66.8311 247.346C67.5491 244.839 66.7659 242.953 64.6522 242.594C62.6489 242.254 60.7002 243.789 60.301 246.139C59.8749 248.648 60.9457 250.274 65.7856 251.112ZM64.2518 243.613C65.5453 243.833 66.0024 244.868 65.7663 246.354C64.6725 246.2 62.5481 245.905 61.6594 245.786C62.0354 244.146 62.9741 243.396 64.2518 243.613Z" fill="white"/>
<path d="M80.3293 251.669L80.4413 250.677H77.8813V240.501H74.2653L74.1533 241.429L76.5693 241.541V250.677H74.0253V251.669H80.3293Z" fill="white"/>
<path d="M91.2614 250.737C93.2489 250.4 94.6211 248.446 94.187 245.891C93.7663 243.414 92.1632 242.194 90.2388 242.521C88.2513 242.858 86.8686 244.846 87.2947 247.354C87.7181 249.846 89.3527 251.062 91.2614 250.737ZM91.2869 249.646C89.9776 249.868 88.891 248.917 88.548 246.898C88.2264 245.005 88.9329 243.814 90.1948 243.599C91.5198 243.374 92.6092 244.341 92.9495 246.345C93.2738 248.253 92.5646 249.429 91.2869 249.646Z" fill="white"/>
<path d="M104.61 246.17C104.203 246.312 103.783 246.374 103.293 246.376C102.517 244.207 101.985 242.783 101.526 241.57C101.893 241.018 102.412 240.565 103.001 240.359C104.164 239.952 105.368 240.633 106.013 242.475C106.663 244.333 105.954 245.699 104.61 246.17ZM104.55 249.971L103.721 247.6C104.008 247.55 104.285 247.47 104.542 247.38C106.732 246.614 108.045 244.409 107.116 241.75C106.36 239.591 104.701 238.629 103.131 239.178C102.209 239.5 101.612 240.167 101.227 240.861L100.883 240.117L99.7914 240.584C100.416 242.128 101.213 244.358 102.466 247.937L103.364 250.504L104.55 249.971Z" fill="white"/>
<path d="M120.871 239.882L120.449 238.853C117.083 240.603 115.721 240.552 114.711 238.989L119.34 236.285C118.339 233.877 116.551 232.891 114.674 233.928C112.896 234.911 112.329 237.326 113.482 239.412C114.713 241.639 116.564 242.243 120.871 239.882ZM114.997 234.974C116.145 234.34 117.148 234.864 117.889 236.173C116.938 236.735 115.093 237.828 114.324 238.289C113.595 236.772 113.862 235.601 114.997 234.974Z" fill="white"/>
<path d="M132.127 231.62L131.596 230.774L129.519 232.43C128.37 231.014 127.387 229.833 126.527 228.779C126.853 227.803 127.522 226.819 128.693 225.722L127.786 224.686C126.642 225.843 126.102 227.092 126.001 228.196C125.759 227.918 125.2 227.32 125.088 227.205L122.711 229.1L123.214 229.886L124.835 228.737C125.85 229.933 127.01 231.361 128.531 233.218L126.905 234.515L127.523 235.29L132.127 231.62Z" fill="white"/>
<path d="M138.323 218.019L134.943 221.8L135.766 222.536L139.082 218.826L138.323 218.019Z" fill="white"/>
<path d="M42.4 136.16C37.36 136.16 32.92 135.28 29.08 133.52C25.24 131.76 22.28 129.32 20.2 126.2C18.12 123 17.08 119.32 17.08 115.16C17.08 111.64 17.8 108.44 19.24 105.56C20.76 102.68 22.76 100.4 25.24 98.72C27.8 97.04 30.6 96.2 33.64 96.2C36.44 96.2 38.8 96.92 40.72 98.36C42.64 99.72 43.84 101.64 44.32 104.12C40.16 104.12 36.84 105.24 34.36 107.48C31.88 109.64 30.64 112.6 30.64 116.36C30.64 119.8 31.68 122.56 33.76 124.64C35.84 126.72 38.6 127.76 42.04 127.76C46.28 127.76 49.76 126.36 52.48 123.56C55.28 120.68 56.68 117.08 56.68 112.76C56.68 109 55.64 105.44 53.56 102.08C51.48 98.72 48.36 94.64 44.2 89.84C39.88 84.88 36.6 80.64 34.36 77.12C32.2 73.52 31.12 69.6 31.12 65.36C31.12 61.2 32.28 57.48 34.6 54.2C36.92 50.84 40.12 48.2 44.2 46.28C48.28 44.36 52.88 43.4 58 43.4C64.48 43.4 69.64 44.92 73.48 47.96C77.4 51 79.36 55.08 79.36 60.2C79.36 63.56 78.52 66.28 76.84 68.36C75.16 70.44 72.96 71.48 70.24 71.48C67.2 71.48 64.76 70.24 62.92 67.76C64.44 66.64 65.64 65.16 66.52 63.32C67.4 61.48 67.84 59.56 67.84 57.56C67.84 55 67.08 52.96 65.56 51.44C64.04 49.92 61.96 49.16 59.32 49.16C56.12 49.16 53.48 50.32 51.4 52.64C49.4 54.88 48.4 57.76 48.4 61.28C48.4 64.48 49.32 67.48 51.16 70.28C53 73 55.88 76.52 59.8 80.84C63 84.28 65.56 87.24 67.48 89.72C69.48 92.2 71.16 95.08 72.52 98.36C73.96 101.56 74.68 105.04 74.68 108.8C74.68 113.92 73.24 118.56 70.36 122.72C67.56 126.88 63.68 130.16 58.72 132.56C53.84 134.96 48.4 136.16 42.4 136.16Z" fill="white"/>
<path d="M95.29 92L95.395 90.965H93.1V82.37L91.915 82.475V83.54L89.53 83.825L89.545 84.71L91.915 84.59V90.965H89.35V92H95.29ZM98.8571 92.33C102.022 90.83 103.462 88.745 103.462 86.15C103.462 83.78 102.202 82.535 100.387 82.535C98.7221 82.535 97.2521 83.75 97.2521 85.7C97.2521 88.34 100.102 89.21 102.217 87.395C101.902 88.985 100.822 90.23 98.3471 91.28L98.8571 92.33ZM98.3921 85.55C98.3921 84.29 99.2321 83.525 100.267 83.525C101.452 83.525 102.322 84.41 102.322 86.285C102.322 86.39 102.322 86.495 102.322 86.6C100.432 88.1 98.3921 87.59 98.3921 85.55Z" fill="white"/>
<path d="M142.96 92.18C144.925 92.18 146.2 91.07 146.2 89.675C146.2 88.49 145.15 87.785 144.025 87.17C145.27 86.57 146.02 85.82 146.02 84.68C146.02 83.36 144.82 82.52 143.245 82.52C141.295 82.52 140.23 83.735 140.23 84.92C140.23 86 141.115 86.705 142.135 87.305C140.875 87.95 140.065 88.82 140.065 89.945C140.065 91.31 141.28 92.18 142.96 92.18ZM141.4 84.77C141.4 84.095 141.985 83.465 143.14 83.465C144.265 83.465 144.88 84.08 144.88 84.905C144.88 85.685 144.31 86.315 143.365 86.795C142.315 86.24 141.4 85.67 141.4 84.77ZM143.125 91.235C141.895 91.235 141.235 90.59 141.235 89.675C141.235 88.88 141.79 88.19 142.795 87.695C143.935 88.325 145.015 88.925 145.015 89.84C145.015 90.635 144.28 91.235 143.125 91.235ZM154.537 92L154.642 90.965H152.347V82.37L151.162 82.475V83.54L148.777 83.825L148.792 84.71L151.162 84.59V90.965H148.597V92H154.537Z" fill="white"/>
<path d="M118.125 90.45C117.075 90.45 116.15 90.2667 115.35 89.9C114.55 89.5333 113.933 89.025 113.5 88.375C113.067 87.7083 112.85 86.9417 112.85 86.075C112.85 85.3417 113 84.675 113.3 84.075C113.617 83.475 114.033 83 114.55 82.65C115.083 82.3 115.667 82.125 116.3 82.125C116.883 82.125 117.375 82.275 117.775 82.575C118.175 82.8583 118.425 83.2583 118.525 83.775C117.658 83.775 116.967 84.0083 116.45 84.475C115.933 84.925 115.675 85.5417 115.675 86.325C115.675 87.0417 115.892 87.6167 116.325 88.05C116.758 88.4833 117.333 88.7 118.05 88.7C118.933 88.7 119.658 88.4083 120.225 87.825C120.808 87.225 121.1 86.475 121.1 85.575C121.1 84.7917 120.883 84.05 120.45 83.35C120.017 82.65 119.367 81.8 118.5 80.8C117.6 79.7667 116.917 78.8833 116.45 78.15C116 77.4 115.775 76.5833 115.775 75.7C115.775 74.8333 116.017 74.0583 116.5 73.375C116.983 72.675 117.65 72.125 118.5 71.725C119.35 71.325 120.308 71.125 121.375 71.125C122.725 71.125 123.8 71.4417 124.6 72.075C125.417 72.7083 125.825 73.5583 125.825 74.625C125.825 75.325 125.65 75.8917 125.3 76.325C124.95 76.7583 124.492 76.975 123.925 76.975C123.292 76.975 122.783 76.7167 122.4 76.2C122.717 75.9667 122.967 75.6583 123.15 75.275C123.333 74.8917 123.425 74.4917 123.425 74.075C123.425 73.5417 123.267 73.1167 122.95 72.8C122.633 72.4833 122.2 72.325 121.65 72.325C120.983 72.325 120.433 72.5667 120 73.05C119.583 73.5167 119.375 74.1167 119.375 74.85C119.375 75.5167 119.567 76.1417 119.95 76.725C120.333 77.2917 120.933 78.025 121.75 78.925C122.417 79.6417 122.95 80.2583 123.35 80.775C123.767 81.2917 124.117 81.8917 124.4 82.575C124.7 83.2417 124.85 83.9667 124.85 84.75C124.85 85.8167 124.55 86.7833 123.95 87.65C123.367 88.5167 122.558 89.2 121.525 89.7C120.508 90.2 119.375 90.45 118.125 90.45Z" fill="#F56A5C"/>
<path d="M124.95 99.4C123.067 99.4 121.683 98.925 120.8 97.975C119.917 97.025 119.475 95.45 119.475 93.25C119.475 91.5 119.767 89.6167 120.35 87.6C120.95 85.5833 121.9 83.8583 123.2 82.425C124.517 80.975 126.183 80.25 128.2 80.25C129.45 80.25 130.458 80.525 131.225 81.075C131.992 81.625 132.375 82.4667 132.375 83.6C132.375 84.3167 132.233 84.8833 131.95 85.3C131.667 85.7 131.225 85.9 130.625 85.9C130.025 85.9 129.55 85.6833 129.2 85.25C129.5 85.1 129.767 84.8 130 84.35C130.233 83.9 130.35 83.4333 130.35 82.95C130.35 82.5 130.225 82.1333 129.975 81.85C129.742 81.5667 129.358 81.425 128.825 81.425C127.942 81.425 127.1 82.0333 126.3 83.25C125.5 84.45 124.85 85.9667 124.35 87.8C123.867 89.6333 123.625 91.4 123.625 93.1C123.625 94.3667 123.842 95.3333 124.275 96C124.708 96.6667 125.492 97 126.625 97C127.608 97 128.517 96.7833 129.35 96.35C130.183 95.9167 130.9 95.3 131.5 94.5L132.075 94.75C131.658 95.8 131.042 96.675 130.225 97.375C129.408 98.075 128.533 98.5917 127.6 98.925C126.667 99.2417 125.783 99.4 124.95 99.4Z" fill="#F56A5C"/>
<path d="M76.3245 136.186C75.3325 136.186 74.5265 135.876 73.9065 135.256C73.3071 134.636 73.0075 133.706 73.0075 132.466C73.0075 131.949 73.0901 131.278 73.2555 130.451L75.1155 121.74H74.0925L74.3405 120.5H75.3635L76.2935 116.222L80.8815 115.602L79.8275 120.5H81.6875L81.4395 121.74H79.5795L77.5955 131.04C77.5128 131.35 77.4715 131.681 77.4715 132.032C77.4715 132.445 77.5645 132.745 77.7505 132.931C77.9571 133.096 78.2878 133.179 78.7425 133.179C79.3418 133.179 79.8998 132.931 80.4165 132.435C80.9331 131.918 81.3051 131.257 81.5325 130.451H82.8345C82.0698 132.683 81.0881 134.202 79.8895 135.008C78.6908 135.793 77.5025 136.186 76.3245 136.186ZM87.1931 136.186C85.6638 136.186 84.4755 135.793 83.6281 135.008C82.7808 134.202 82.3571 132.952 82.3571 131.257C82.3571 129.831 82.6361 128.26 83.1941 126.545C83.7521 124.83 84.6615 123.352 85.9221 122.112C87.1828 120.851 88.7845 120.221 90.7271 120.221C93.0005 120.221 94.1371 121.213 94.1371 123.197C94.1371 124.354 93.8065 125.419 93.1451 126.39C92.4838 127.361 91.6055 128.147 90.5101 128.746C89.4148 129.325 88.2471 129.655 87.0071 129.738C86.9658 130.358 86.9451 130.771 86.9451 130.978C86.9451 131.991 87.1208 132.683 87.4721 133.055C87.8235 133.406 88.3918 133.582 89.1771 133.582C90.2931 133.582 91.2438 133.324 92.0291 132.807C92.8351 132.29 93.7135 131.505 94.6641 130.451H95.7181C93.4241 134.274 90.5825 136.186 87.1931 136.186ZM87.2551 128.25C88.0198 128.209 88.7431 127.94 89.4251 127.444C90.1278 126.948 90.6858 126.318 91.0991 125.553C91.5331 124.788 91.7501 123.982 91.7501 123.135C91.7501 122.288 91.4918 121.864 90.9751 121.864C90.2311 121.864 89.4975 122.515 88.7741 123.817C88.0715 125.119 87.5651 126.597 87.2551 128.25ZM98.2536 119.353H102.718L102.222 121.678C103.255 120.789 104.464 120.345 105.849 120.345C107.006 120.345 107.926 120.727 108.608 121.492C109.29 122.257 109.631 123.507 109.631 125.243C109.631 126.876 109.393 128.529 108.918 130.203C108.442 131.856 107.636 133.272 106.5 134.45C105.363 135.607 103.865 136.186 102.005 136.186C100.682 136.186 99.8036 135.814 99.3696 135.07L97.7576 142.634L93.0766 143.75L98.2536 119.353ZM101.044 133.489C102.036 133.489 102.852 133.024 103.493 132.094C104.154 131.164 104.629 130.058 104.919 128.777C105.229 127.475 105.384 126.266 105.384 125.15C105.384 123.435 104.867 122.577 103.834 122.577C103.462 122.577 103.079 122.711 102.687 122.98C102.315 123.249 101.984 123.621 101.695 124.096L99.8656 132.776C100.031 133.251 100.424 133.489 101.044 133.489ZM122.83 136.186C121.569 136.186 120.639 135.855 120.04 135.194C119.461 134.512 119.172 133.675 119.172 132.683C119.172 132.249 119.223 131.763 119.327 131.226C119.43 130.668 119.533 130.131 119.637 129.614C119.761 129.097 119.843 128.767 119.885 128.622C120.05 127.899 120.205 127.186 120.35 126.483C120.494 125.78 120.567 125.212 120.567 124.778C120.567 123.724 120.195 123.197 119.451 123.197C118.913 123.197 118.438 123.466 118.025 124.003C117.611 124.52 117.281 125.202 117.033 126.049L114.925 136H110.461L114.956 114.92L119.544 114.3L117.87 122.112C118.903 120.955 120.112 120.376 121.497 120.376C122.551 120.376 123.388 120.665 124.008 121.244C124.628 121.823 124.938 122.701 124.938 123.879C124.938 124.478 124.865 125.15 124.721 125.894C124.576 126.617 124.369 127.506 124.101 128.56C123.935 129.201 123.78 129.831 123.636 130.451C123.512 131.05 123.45 131.526 123.45 131.877C123.45 132.29 123.543 132.611 123.729 132.838C123.915 133.065 124.235 133.179 124.69 133.179C125.31 133.179 125.806 132.962 126.178 132.528C126.55 132.073 126.922 131.381 127.294 130.451H128.596C127.831 132.724 126.942 134.254 125.93 135.039C124.938 135.804 123.904 136.186 122.83 136.186ZM132.963 136.186C131.434 136.186 130.245 135.793 129.398 135.008C128.551 134.202 128.127 132.952 128.127 131.257C128.127 129.831 128.406 128.26 128.964 126.545C129.522 124.83 130.431 123.352 131.692 122.112C132.953 120.851 134.554 120.221 136.497 120.221C138.77 120.221 139.907 121.213 139.907 123.197C139.907 124.354 139.576 125.419 138.915 126.39C138.254 127.361 137.375 128.147 136.28 128.746C135.185 129.325 134.017 129.655 132.777 129.738C132.736 130.358 132.715 130.771 132.715 130.978C132.715 131.991 132.891 132.683 133.242 133.055C133.593 133.406 134.162 133.582 134.947 133.582C136.063 133.582 137.014 133.324 137.799 132.807C138.605 132.29 139.483 131.505 140.434 130.451H141.488C139.194 134.274 136.352 136.186 132.963 136.186ZM133.025 128.25C133.79 128.209 134.513 127.94 135.195 127.444C135.898 126.948 136.456 126.318 136.869 125.553C137.303 124.788 137.52 123.982 137.52 123.135C137.52 122.288 137.262 121.864 136.745 121.864C136.001 121.864 135.267 122.515 134.544 123.817C133.841 125.119 133.335 126.597 133.025 128.25ZM152.331 136.186C151.236 136.186 150.44 135.855 149.944 135.194C149.448 134.533 149.2 133.696 149.2 132.683C149.2 132.249 149.252 131.763 149.355 131.226C149.459 130.668 149.562 130.131 149.665 129.614C149.789 129.097 149.872 128.767 149.913 128.622C150.079 127.899 150.234 127.186 150.378 126.483C150.523 125.78 150.595 125.212 150.595 124.778C150.595 123.724 150.223 123.197 149.479 123.197C148.942 123.197 148.467 123.466 148.053 124.003C147.64 124.52 147.309 125.202 147.061 126.049L144.953 136H140.489L143.775 120.5H148.239L147.898 122.112C148.932 120.955 150.141 120.376 151.525 120.376C152.579 120.376 153.416 120.665 154.036 121.244C154.656 121.823 154.966 122.701 154.966 123.879C154.966 124.478 154.894 125.15 154.749 125.894C154.605 126.617 154.398 127.506 154.129 128.56C153.964 129.201 153.809 129.831 153.664 130.451C153.54 131.05 153.478 131.526 153.478 131.877C153.478 132.29 153.571 132.611 153.757 132.838C153.943 133.065 154.264 133.179 154.718 133.179C155.214 133.179 155.555 133.117 155.741 132.993C155.617 134.047 155.235 134.843 154.594 135.38C153.974 135.917 153.22 136.186 152.331 136.186Z" fill="white"/>
<path d="M11.8875 47.4646L9.54008 51.9607L10.5187 52.4717L12.8217 48.0607L11.8875 47.4646Z" fill="white"/>
<path d="M17.8846 40.7957C19.7518 42.3034 21.9679 42.386 24.7043 38.4878L23.9483 37.6922C21.6728 40.7904 20.1576 40.9859 18.5518 39.6892C17.2571 38.6438 16.8907 37.3403 19.4463 34.2009L18.4275 33.5016C15.6374 37.1097 16.204 39.4387 17.8846 40.7957Z" fill="white"/>
<path d="M32.3658 31.308C33.9162 30.0195 34.1243 27.6413 32.4676 25.6479C30.8621 23.716 28.863 23.4633 27.3617 24.711C25.8113 25.9995 25.6114 28.4125 27.2374 30.369C28.8531 32.3132 30.8768 32.5454 32.3658 31.308ZM31.8406 30.3506C30.8192 31.1994 29.402 30.9209 28.093 29.3459C26.8658 27.8692 26.88 26.4844 27.8644 25.6663C28.898 24.8073 30.3255 25.098 31.6243 26.6608C32.8617 28.1497 32.8373 29.5223 31.8406 30.3506Z" fill="white"/>
<path d="M40.5885 17.1654C41.4613 16.6939 42.2331 16.8771 42.948 18.2004L45.2673 22.494L46.4076 21.878L43.8829 17.2043C42.9704 15.515 41.7813 15.2663 40.5424 15.9355C39.557 16.4678 39.0467 17.3073 38.7281 18.0977L38.2318 17.3474L37.214 17.9881C38.1437 19.5408 39.3886 21.778 41.016 24.7905L42.1562 24.1746C40.8559 21.7673 39.8467 19.9666 39.1418 18.7289C39.479 18.0739 39.9269 17.5228 40.5885 17.1654Z" fill="white"/>
<path d="M56.3888 9.76911C52.4751 10.6497 51.5649 12.2671 51.9303 13.4604C52.5066 15.3422 56.764 14.2727 57.1716 15.6036C57.3777 16.2768 56.6132 17.1133 53.2596 17.8558L53.551 18.9714C57.8284 17.9125 58.7987 16.3269 58.4239 15.103C57.8383 13.1907 53.5127 14.1472 53.1333 12.908C52.9458 12.296 53.6127 11.5229 56.7721 10.8566L56.3888 9.76911Z" fill="white"/>
<path d="M72.5534 15.2161L72.5891 14.1192C69.9732 14.3309 69.1901 14.055 69.0556 12.7017L68.6489 8.60986L71.8332 8.2934L71.7336 7.29034L68.5492 7.6068L68.323 5.33002L67.0444 5.56963L67.2596 7.73497L65.7789 7.88212L65.7512 8.89784L67.3593 8.73803L67.7865 13.0368C67.978 14.9634 69.1828 15.5993 72.5534 15.2161Z" fill="white"/>
<path d="M85.1278 15.582L86.3299 15.6211C86.429 13.814 86.6504 11.2634 86.989 7.85617L85.6993 7.72801C85.4272 10.4665 85.2565 12.5076 85.1491 13.9119C84.5173 14.2832 83.836 14.505 83.0877 14.4306C82.1165 14.3341 81.5939 13.7676 81.7458 12.2391L82.2332 7.3353L80.934 7.30266L80.4135 12.5409C80.222 14.4674 81.052 15.3377 82.4372 15.4754C83.5517 15.5861 84.4302 15.1589 85.1368 14.6825L85.1278 15.582Z" fill="white"/>
<path d="M99.6281 18.9501L100.026 18.0344L97.5778 17.2848L100.558 7.55481L97.1 6.49599L96.7212 7.35052L98.9985 8.16505L96.3234 16.9006L93.8909 16.1557L93.6004 17.1042L99.6281 18.9501Z" fill="white"/>
<path d="M109.221 22.336C108.362 21.8722 108.027 21.1457 108.423 20.4136C108.932 19.4704 110.059 19.3701 112.435 20.9988C112.07 21.6745 111.81 22.1889 111.581 22.6469C110.818 22.7803 109.911 22.7086 109.221 22.336ZM110.914 24.251L111.994 24.7433C112.47 23.7275 112.938 22.7257 113.714 21.2898C115.151 18.6292 114.53 17.2207 110.607 14.956L109.948 15.873C112.97 17.651 113.622 18.5307 112.862 20.1747C109.906 18.3415 107.92 18.6509 107.152 20.0727C106.551 21.1848 107.045 22.3244 108.298 23.0012C109.382 23.5868 110.45 23.5275 111.295 23.3108C111.156 23.6358 110.976 24.1026 110.914 24.251Z" fill="white"/>
<path d="M125.133 25.7431C125.896 26.3771 126.014 27.1616 125.053 28.3183L121.933 32.0714L122.93 32.8997L126.325 28.8144C127.553 27.3377 127.34 26.1416 126.257 25.2417C125.396 24.5259 124.426 24.3653 123.574 24.3644L124.085 23.6242L123.111 22.9187C122.017 24.3604 120.406 26.3497 118.217 28.983L119.214 29.8113C120.963 27.7071 122.257 26.0993 123.143 24.9837C123.876 25.0523 124.555 25.2624 125.133 25.7431Z" fill="white"/>
<path d="M131.87 42.9783L132.807 42.4068C131.196 40.3351 130.997 39.5289 132.055 38.6745L135.255 36.0912L137.265 38.5808L138.049 37.9476L136.039 35.4579L137.819 34.0205L136.918 33.0825L135.225 34.4496L134.29 33.2919L133.425 33.8256L134.44 35.0829L131.079 37.7968C129.573 39.0131 129.702 40.3694 131.87 42.9783Z" fill="white"/>
<path d="M143.435 51.8544L141.087 47.3583L140.108 47.8692L142.411 52.2802L143.435 51.8544Z" fill="white"/>
</g>
<defs>
<clipPath id="clip0_176_1151">
<rect width="156" height="255.669" fill="white"/>
</clipPath>
</defs>
</svg>
